<?xml version="1.0" encoding="UTF-8"?>
<svg id="Layer_2" data-name="Layer 2" xmlns="http://www.w3.org/2000/svg" viewBox="0 0 1080 1201.21">
  <defs>
    <style>
      .cls-1 {
        fill: #d9f560;
      }
    </style>
  </defs>
  <g id="Layer_1-2" data-name="Layer 1">
    <path class="cls-1" d="M768.17,311.46L833.97.87c.1-.48-.2-.87-.68-.87h-234.19c-4.97,0-10.09.08-15.17.33C367.63,8.08,157.81,181.22,104.66,395.79c-1.3,5.01-2.44,10-3.5,15.02L.02,888.2c-.1.48.2.87.68.87l310.44-.19c.48,0,.79.39.68.87l-65.8,310.59c-.1.48.2.87.68.87h234.19c4.97,0,10.09-.08,15.17-.33,216.3-7.76,426.12-180.9,479.27-395.46,1.3-5.01,2.44-10,3.5-15.02l101.14-477.39c.1-.48-.2-.87-.68-.87l-310.44.19c-.48,0-.79-.39-.68-.87ZM663.16,793.16c-12.34,50.49-61.4,91.1-112.27,92.94l-3.3.12c.1,0,.14-.02.06-.02h-231.32c-.48,0-.79-.39-.68-.87l100.58-474.71.75-3.05c12.28-50.23,61.07-90.62,111.68-92.44l3.78-.14c-.1,0-.14.02-.06.02h231.32c.48,0,.79.39.68.87l-100.58,474.71-.63,2.57Z"/>
  </g>
</svg>